# xmcd CD database file
#
# Track frame offsets:
#	150
#	18275
#	36175
#	49870
#	66660
#	83477
#	103535
#	124457
#	146945
#
# Disc length: 2299 seconds
#
# Revision: 0
# Processed by: cddbd v1.5PL3 Copyright (c) Steve Scherf et al.
# Submitted via: CDex 1.51
#
DISCID=8008f909
DTITLE=Denise Reis - Cha de Hortela com Caviar
DYEAR=2004
DGENRE=Jazz
TTITLE0=Abre Alas
TTITLE1=Cha de Hortela com Caviar
TTITLE2=Bem me Quer
TTITLE3=Minha Neblina
TTITLE4=Palavra de Mulher
TTITLE5=Rio X
TTITLE6=Trenzinho do Caipira
TTITLE7=Conversar Comigo
TTITLE8=E
EXTD=YEAR: 2004
EXTT0=
EXTT1=
EXTT2=
EXTT3=
EXTT4=
EXTT5=
EXTT6=
EXTT7=
EXTT8=
PLAYORDER=
